<svg width="1146" height="558" viewBox="0 0 1146 558" fill="none" xmlns="http://www.w3.org/2000/svg">
<path d="M853.822 -171.94C795.029 -261.622 630.805 -259.441 529.607 -210.803C412.993 -154.74 408.259 -50.5141 306.999 -34.3717C214.605 -19.6128 171.321 -98.9236 105.376 -83.8794C44.7719 -70.0509 -19.0404 19.8181 -47.3719 330.714" stroke="url(#paint0_linear_392_1311)" stroke-miterlimit="10"/>
<path d="M-35.4396 338.314C-7.18695 31.7575 55.7763 -60.0392 116.129 -76.4174C160.886 -88.4999 195.515 -56.3289 242.487 -40.4536C266.161 -32.0457 291.543 -29.6186 316.354 -33.39C397.654 -45.6879 418.314 -111.919 485.222 -167.371C502.249 -181.564 520.898 -193.71 540.784 -203.558C641.67 -253.93 800.553 -263.522 859.79 -178.31" stroke="url(#paint1_linear_392_1311)" stroke-miterlimit="10"/>
<path d="M-23.5055 345.873C4.67612 43.6723 66.7484 -50.0123 126.741 -68.8695C170.843 -82.7274 205.527 -52.8853 251.824 -38.6142C275.613 -30.9597 300.828 -28.8108 325.545 -32.3313C405.979 -43.8018 428.796 -105.421 496.407 -160.07C513.57 -173.999 532.14 -186.116 551.821 -196.228C652.56 -248.027 805.929 -265.353 865.609 -184.61" stroke="url(#paint2_linear_392_1311)" stroke-miterlimit="10"/>
<path d="M-11.6038 353.406C16.4971 55.627 77.736 -39.9522 137.412 -61.3689C180.907 -76.9846 215.565 -49.4736 261.243 -36.8133C285.109 -29.9046 310.144 -28.0201 334.752 -31.2802C414.387 -41.9542 439.203 -98.9087 507.609 -152.776C524.896 -166.489 543.402 -178.606 562.9 -188.978C663.39 -242.378 811.331 -267.257 871.454 -190.982" stroke="url(#paint3_linear_392_1311)" stroke-miterlimit="10"/>
<path d="M0.33676 361.022C28.3432 67.55 88.698 -29.8597 148.107 -53.8592C190.953 -71.1928 225.668 -46.0516 270.687 -35.0442C294.646 -28.8793 319.543 -27.264 344.075 -30.2828C422.911 -40.1604 449.783 -92.4568 519.009 -145.575C536.403 -159.006 554.813 -171.081 574.076 -181.693C674.334 -236.701 816.855 -269.116 877.438 -197.318" stroke="url(#paint4_linear_392_1311)" stroke-miterlimit="10"/>
<path d="M12.1956 368.636C40.173 79.4811 98.9518 -21.3964 158.795 -46.3655C201.489 -64.2346 235.716 -42.745 280.106 -33.2425C304.137 -27.8427 328.895 -26.4971 353.349 -29.2618C431.386 -38.3429 460.281 -85.9656 530.218 -138.263C547.712 -151.465 566.046 -163.528 585.104 -174.378C685.098 -231.062 822.223 -270.962 883.256 -203.617" stroke="url(#paint5_linear_392_1311)" stroke-miterlimit="10"/>
<path d="M24.2044 376.18C52.0278 91.4206 110.678 -9.55828 169.427 -38.9473C211.02 -59.495 245.845 -39.355 289.55 -31.4324C313.63 -26.7936 338.255 -25.7127 362.631 -28.2246C439.868 -36.5093 470.829 -79.4981 541.494 -130.983C559.1 -143.935 577.364 -155.977 596.215 -167.061C695.976 -225.354 827.649 -272.856 889.15 -209.93" stroke="url(#paint6_linear_392_1311)" stroke-miterlimit="10"/>
<path d="M36.1295 383.764C63.8243 103.367 121.607 0.509375 180.162 -31.3542C221.041 -53.6705 255.936 -36.1289 298.978 -29.6549C323.088 -25.7824 347.585 -24.9754 371.88 -27.2532C448.31 -34.7171 481.352 -73.0389 552.738 -123.769C569.358 -135.552 587.269 -147.775 607.286 -159.827C706.808 -219.786 833.099 -274.7 895.027 -216.276" stroke="url(#paint7_linear_392_1311)" stroke-miterlimit="10"/>
<path d="M48.0556 391.346C75.7125 115.291 132.624 10.759 190.818 -23.8859C231.07 -47.8297 266.053 -32.8942 308.432 -27.9096C332.569 -24.8106 356.959 -24.2617 381.197 -26.272C456.828 -32.9394 491.893 -66.6284 564.055 -116.528C580.852 -128.151 598.729 -140.317 618.448 -152.574C717.588 -214.113 838.541 -276.56 900.904 -222.622" stroke="url(#paint8_linear_392_1311)" stroke-miterlimit="10"/>
<path d="M59.9908 398.905C87.5601 127.215 143.626 20.9756 201.53 -16.3426C241.147 -41.8894 276.268 -29.6649 317.827 -26.0758C341.962 -23.7458 366.246 -23.4484 390.42 -25.1868C465.269 -31.0655 502.391 -60.0964 575.258 -109.274C592.149 -120.698 610.043 -132.872 629.47 -145.317C728.439 -208.634 843.937 -278.519 906.751 -229.034" stroke="url(#paint9_linear_392_1311)" stroke-miterlimit="10"/>
<path d="M71.9166 406.488C99.3905 139.146 154.642 31.2258 212.168 -8.82508C251.158 -35.9584 286.335 -26.4471 327.238 -24.2491C351.357 -22.7107 375.546 -22.6775 399.661 -24.1496C473.694 -29.224 512.865 -53.6134 586.532 -101.911C603.615 -113.142 621.451 -125.31 640.579 -137.917C739.26 -202.959 849.368 -280.273 912.658 -235.272" stroke="url(#paint10_linear_392_1311)" stroke-miterlimit="10"/>
<path d="M83.8427 414.071C111.245 151.087 165.692 41.4609 222.889 -1.34594C261.277 -30.0569 296.511 -23.2996 336.69 -22.4618C359.784 -21.9876 383.364 -21.6395 408.968 -23.1429C482.194 -27.4374 523.429 -47.1521 597.833 -94.6615C615.067 -105.7 632.862 -117.869 651.74 -130.663C750.134 -197.429 854.869 -282.179 918.593 -241.623" stroke="url(#paint11_linear_392_1311)" stroke-miterlimit="10"/>
<path d="M95.7699 421.654C123.125 163.076 176.642 51.7828 233.57 6.17255C271.346 -24.1326 306.673 -20.1857 346.128 -20.6671C369.411 -20.9484 392.917 -20.8885 418.243 -22.1212C490.693 -25.5696 533.937 -40.6846 609.102 -87.3969C626.495 -98.2269 644.266 -110.404 662.802 -123.363C760.877 -191.879 860.27 -284.039 924.446 -247.936" stroke="url(#paint12_linear_392_1311)" stroke-miterlimit="10"/>
<path d="M107.663 429.253C134.933 174.958 187.783 62.037 244.25 13.692C281.439 -18.1576 316.826 -17.0873 355.572 -18.8549C379.047 -19.9323 402.469 -20.1363 427.459 -21.0509C499.103 -23.7602 544.394 -34.1521 620.386 -80.0981C637.939 -90.7603 655.652 -102.931 673.913 -116.044C771.669 -186.35 865.705 -285.913 930.331 -254.263" stroke="url(#paint13_linear_392_1311)" stroke-miterlimit="10"/>
<path d="M119.634 436.795C146.782 186.882 198.824 72.3779 254.94 21.1865C291.551 -12.2318 326.973 -14.0468 364.986 -17.0685C388.645 -18.9587 412.031 -19.409 436.793 -20.0761C507.605 -21.9735 554.978 -27.7394 631.647 -72.8495C650.037 -83.9275 667.843 -95.9375 684.995 -108.832C782.438 -180.831 871.206 -287.778 936.209 -260.607" stroke="url(#paint14_linear_392_1311)" stroke-miterlimit="10"/>
<path d="M131.561 444.379C158.639 198.823 209.974 82.6083 265.563 28.7133C301.603 -6.25716 337.062 -10.9983 374.44 -15.2797C398.274 -17.9993 421.592 -18.6802 446.068 -19.0524C516.097 -20.1612 565.51 -21.2613 642.883 -65.5675C661.374 -76.3868 679.143 -88.3827 696.081 -101.481C793.159 -175.41 876.59 -289.628 942.08 -267.006" stroke="url(#paint15_linear_392_1311)" stroke-miterlimit="10"/>
<path d="M143.489 451.962C170.471 210.755 221.179 92.9546 276.303 36.1859C311.755 -0.288065 347.236 -8.02935 383.854 -13.492C407.856 -17.0574 431.128 -17.9194 455.327 -18.021C524.54 -18.3255 576.018 -14.792 654.185 -58.3164C672.767 -68.8984 690.494 -80.8985 707.21 -94.2093C803.918 -169.865 882.033 -291.484 947.997 -273.265" stroke="url(#paint16_linear_392_1311)" stroke-miterlimit="10"/>
<path d="M155.444 459.537C182.37 222.767 232.238 103.321 286.993 43.7151C321.924 5.66683 357.353 -5.0599 393.283 -11.6771C417.504 -16.1523 440.681 -17.1721 464.61 -16.9865C533.008 -16.5278 586.54 -8.29577 665.467 -51.0219C684.132 -61.3755 701.82 -73.3811 718.318 -86.8938C814.65 -164.373 887.471 -293.339 953.885 -279.573" stroke="url(#paint17_linear_392_1311)" stroke-miterlimit="10"/>
<path d="M167.383 467.12C194.115 234.669 243.411 113.675 297.723 51.2874C332.115 11.7135 367.476 -2.03162 402.776 -9.76905C427.122 -15.0502 450.321 -16.3229 473.939 -15.8512C541.553 -14.563 597.125 -1.70669 676.771 -43.6765C695.519 -53.8011 713.17 -65.814 729.449 -79.5273C825.396 -158.845 893.046 -295.116 959.803 -285.813" stroke="url(#paint18_linear_392_1311)" stroke-miterlimit="10"/>
<path d="M179.322 474.703C206.049 246.585 254.603 124.021 308.383 58.7518C342.261 17.6203 377.522 0.831599 412.175 -8.05915C436.626 -14.3184 459.819 -15.6485 483.191 -14.8808C549.988 -12.7885 607.608 4.70829 688.03 -36.4302C706.863 -46.3173 724.481 -58.3402 740.534 -72.26C836.056 -153.459 898.353 -297.029 965.659 -292.184" stroke="url(#paint19_linear_392_1311)" stroke-miterlimit="10"/>
<path d="M191.271 482.262C217.91 258.514 265.834 134.449 319.017 66.2883C352.381 23.6402 387.509 3.78276 421.539 -6.21156C446.103 -13.4323 469.306 -14.8683 492.368 -13.8555C558.39 -10.9581 618.065 11.1955 699.222 -29.1537C718.137 -38.8217 735.728 -50.8578 751.569 -64.9702C846.522 -148.144 903.734 -298.834 971.507 -298.49" stroke="url(#paint20_linear_392_1311)" stroke-miterlimit="10"/>
<path d="M203.194 489.853C246.27 133.791 343.898 24.4493 431.053 -4.43316C526.193 -35.965 600.009 31.4695 710.571 -21.8893C840.26 -84.5014 897.678 -300.019 977.428 -304.81" stroke="url(#paint21_linear_392_1311)" stroke-miterlimit="10"/>
<defs>
<linearGradient id="paint0_linear_392_1311" x1="285.62" y1="-169.807" x2="417.831" y2="113.997" gradientUnits="userSpaceOnUse">
<stop stop-color="#515151"/>
<stop offset="1" stop-color="#515151" stop-opacity="0"/>
</linearGradient>
<linearGradient id="paint1_linear_392_1311" x1="297.79" y1="-162.368" x2="430.021" y2="121.477" gradientUnits="userSpaceOnUse">
<stop stop-color="#515151"/>
<stop offset="1" stop-color="#515151" stop-opacity="0"/>
</linearGradient>
<linearGradient id="paint2_linear_392_1311" x1="309.856" y1="-154.981" x2="442.129" y2="128.954" gradientUnits="userSpaceOnUse">
<stop stop-color="#515151"/>
<stop offset="1" stop-color="#515151" stop-opacity="0"/>
</linearGradient>
<linearGradient id="paint3_linear_392_1311" x1="321.886" y1="-147.712" x2="454.237" y2="136.391" gradientUnits="userSpaceOnUse">
<stop stop-color="#515151"/>
<stop offset="1" stop-color="#515151" stop-opacity="0"/>
</linearGradient>
<linearGradient id="paint4_linear_392_1311" x1="333.922" y1="-140.559" x2="466.433" y2="143.889" gradientUnits="userSpaceOnUse">
<stop stop-color="#515151"/>
<stop offset="1" stop-color="#515151" stop-opacity="0"/>
</linearGradient>
<linearGradient id="paint5_linear_392_1311" x1="345.76" y1="-133.546" x2="478.505" y2="151.404" gradientUnits="userSpaceOnUse">
<stop stop-color="#515151"/>
<stop offset="1" stop-color="#515151" stop-opacity="0"/>
</linearGradient>
<linearGradient id="paint6_linear_392_1311" x1="357.667" y1="-126.667" x2="490.685" y2="158.868" gradientUnits="userSpaceOnUse">
<stop stop-color="#515151"/>
<stop offset="1" stop-color="#515151" stop-opacity="0"/>
</linearGradient>
<linearGradient id="paint7_linear_392_1311" x1="369.522" y1="-119.789" x2="502.822" y2="166.353" gradientUnits="userSpaceOnUse">
<stop stop-color="#515151"/>
<stop offset="1" stop-color="#515151" stop-opacity="0"/>
</linearGradient>
<linearGradient id="paint8_linear_392_1311" x1="381.254" y1="-113.173" x2="514.959" y2="173.838" gradientUnits="userSpaceOnUse">
<stop stop-color="#515151"/>
<stop offset="1" stop-color="#515151" stop-opacity="0"/>
</linearGradient>
<linearGradient id="paint9_linear_392_1311" x1="392.965" y1="-106.625" x2="527.096" y2="181.302" gradientUnits="userSpaceOnUse">
<stop stop-color="#515151"/>
<stop offset="1" stop-color="#515151" stop-opacity="0"/>
</linearGradient>
<linearGradient id="paint10_linear_392_1311" x1="404.56" y1="-100.277" x2="539.223" y2="188.792" gradientUnits="userSpaceOnUse">
<stop stop-color="#515151"/>
<stop offset="1" stop-color="#515151" stop-opacity="0"/>
</linearGradient>
<linearGradient id="paint11_linear_392_1311" x1="416.105" y1="-94.1188" x2="551.382" y2="196.267" gradientUnits="userSpaceOnUse">
<stop stop-color="#515151"/>
<stop offset="1" stop-color="#515151" stop-opacity="0"/>
</linearGradient>
<linearGradient id="paint12_linear_392_1311" x1="427.518" y1="-88.1373" x2="563.5" y2="203.762" gradientUnits="userSpaceOnUse">
<stop stop-color="#515151"/>
<stop offset="1" stop-color="#515151" stop-opacity="0"/>
</linearGradient>
<linearGradient id="paint13_linear_392_1311" x1="438.832" y1="-82.3642" x2="575.616" y2="211.257" gradientUnits="userSpaceOnUse">
<stop stop-color="#515151"/>
<stop offset="1" stop-color="#515151" stop-opacity="0"/>
</linearGradient>
<linearGradient id="paint14_linear_392_1311" x1="450.053" y1="-76.898" x2="587.765" y2="218.717" gradientUnits="userSpaceOnUse">
<stop stop-color="#515151"/>
<stop offset="1" stop-color="#515151" stop-opacity="0"/>
</linearGradient>
<linearGradient id="paint15_linear_392_1311" x1="461.12" y1="-71.7125" x2="599.903" y2="226.203" gradientUnits="userSpaceOnUse">
<stop stop-color="#515151"/>
<stop offset="1" stop-color="#515151" stop-opacity="0"/>
</linearGradient>
<linearGradient id="paint16_linear_392_1311" x1="472.023" y1="-66.8531" x2="612.031" y2="233.694" gradientUnits="userSpaceOnUse">
<stop stop-color="#515151"/>
<stop offset="1" stop-color="#515151" stop-opacity="0"/>
</linearGradient>
<linearGradient id="paint17_linear_392_1311" x1="479.093" y1="-70.14" x2="624.13" y2="241.205" gradientUnits="userSpaceOnUse">
<stop stop-color="#515151"/>
<stop offset="1" stop-color="#515151" stop-opacity="0"/>
</linearGradient>
<linearGradient id="paint18_linear_392_1311" x1="485.814" y1="-74.1427" x2="636.215" y2="248.724" gradientUnits="userSpaceOnUse">
<stop stop-color="#515151"/>
<stop offset="1" stop-color="#515151" stop-opacity="0"/>
</linearGradient>
<linearGradient id="paint19_linear_392_1311" x1="492.293" y1="-78.6602" x2="648.298" y2="256.244" gradientUnits="userSpaceOnUse">
<stop stop-color="#515151"/>
<stop offset="1" stop-color="#515151" stop-opacity="0"/>
</linearGradient>
<linearGradient id="paint20_linear_392_1311" x1="498.648" y1="-83.4181" x2="660.365" y2="263.751" gradientUnits="userSpaceOnUse">
<stop stop-color="#515151"/>
<stop offset="1" stop-color="#515151" stop-opacity="0"/>
</linearGradient>
<linearGradient id="paint21_linear_392_1311" x1="504.902" y1="-88.4325" x2="672.454" y2="271.267" gradientUnits="userSpaceOnUse">
<stop stop-color="#515151"/>
<stop offset="1" stop-color="#515151" stop-opacity="0"/>
</linearGradient>
</defs>
</svg>
